<svg xmlns="http://www.w3.org/2000/svg" viewBox="0 0 607 567"><defs><style>.cls-1{fill:#0c41a1;}.cls-2{fill:#f68158;}.cls-3,.cls-4{fill:none;stroke:#000;stroke-miterlimit:10;stroke-width:6px;}.cls-4{stroke-linecap:square;}.cls-5{fill:#fec963;}</style></defs><g id="Fun_Bytes" data-name="Fun Bytes"><rect class="cls-1" x="95.21" y="61.86" width="446" height="446" rx="223"/><ellipse class="cls-2" cx="323.27" cy="247.61" rx="101.37" ry="97.25"/><path class="cls-3" d="M258,214.25a31.74,31.74,0,1,1,63.48,0"/><path class="cls-3" d="M330,214.25a31.74,31.74,0,1,1,63.48,0"/><path class="cls-4" d="M263.78,279.9s13.46,32.66,62.21,34.31c42.63,1.44,57.29-28,60.6-33.76"/><path class="cls-5" d="M412.18,351l-87.42,87.41L214.41,328.08a61.81,61.81,0,1,1,87.42-87.41Z"/><path class="cls-5" d="M435.11,328.08,324.76,438.43,237.35,351,347.7,240.67a61.81,61.81,0,0,1,87.41,87.41Z"/></g></svg>